<?xml version="1.0" ?><!DOCTYPE svg  PUBLIC '-//W3C//DTD SVG 1.1//EN'  'http://www.w3.org/Graphics/SVG/1.1/DTD/svg11.dtd'><svg enable-background="new 0 0 512 512" id="Layer_1" version="1.1" viewBox="0 0 512 512" xml:space="preserve" xmlns="http://www.w3.org/2000/svg" xmlns:xlink="http://www.w3.org/1999/xlink"><g><path d="M258,509.7c-29.3,0-58.7,0.3-88-0.1c-56.1-0.8-101-23.9-134-69.2c-20-27.4-29.8-58.6-30-92.5   c-0.2-60.6-0.1-121.3,0-182C6.2,94.8,55.7,30,124.3,10.9c15.8-4.4,31.9-6.5,48.3-6.5c26.3-0.1,52.7-0.5,79,0.1   C315.3,5.8,363.9,33.9,396,89.1c13.3,22.8,19.6,47.9,20.2,74.3c0.5,21.9,13.8,34.8,35.7,34.8c8.5,0,17-0.1,25.5,0   c18.3,0.2,32.6,14.5,32.6,32.8c0.1,38.8,0.2,77.6,0,116.5c-0.4,78-56.6,145.1-133.2,159.4c-10.4,1.9-20.8,2.8-31.3,2.8   C316.3,509.8,287.2,509.7,258,509.7z M258.5,379.8c30.7,0,61.3,0,92,0c15.8,0,28.5-10.4,30.6-24.7c2.8-19.2-10.7-34.7-30.5-34.7   c-39-0.1-78,0-117,0c-22.3,0-44.7-0.1-67,0c-17.1,0.1-30.3,12.5-30.7,28.4c-0.4,17.7,12.5,31,30.6,31   C197.2,379.9,227.9,379.8,258.5,379.8z M212,136.8c-15,0-30,0-45,0c-3,0-6,0-8.9,0.8c-15.3,4.3-25.7,18.9-23.8,33.2   c2.3,17,14.7,28.3,31.8,28.4c30.6,0.2,61.3,0.1,91.9,0c3.5,0,7-0.2,10.3-1.4c14.6-5,23.7-19.6,21.4-34.3   c-2.3-15.2-15.2-26.5-30.9-26.7C243.3,136.7,227.6,136.8,212,136.8z" fill="#F47D01"/></g></svg>